{
    "accessors" : [
        {
            "bufferView" : 0,
            "componentType" : 5123,
            "count" : 684,
            "max" : [
                351
            ],
            "min" : [
                0
            ],
            "type" : "SCALAR"
        },
        {
            "bufferView" : 1,
            "componentType" : 5126,
            "count" : 352,
            "max" : [
                0.7186618447303772,
                1.7197031354498904e-07,
                1.9240912199020386
            ],
            "min" : [
                -0.9689566493034363,
                -0.7340238094329834,
                -1.1686292886734009
            ],
            "type" : "VEC3"
        },
        {
            "bufferView" : 2,
            "componentType" : 5126,
            "count" : 352,
            "max" : [
                0.998462975025177,
                1.0,
                0.8907005190849304
            ],
            "min" : [
                -0.9911236763000488,
                -1.0,
                -0.9995225071907043
            ],
            "type" : "VEC3"
        },
        {
            "bufferView" : 3,
            "componentType" : 5123,
            "count" : 16188,
            "max" : [
                2855
            ],
            "min" : [
                0
            ],
            "type" : "SCALAR"
        },
        {
            "bufferView" : 4,
            "componentType" : 5126,
            "count" : 2856,
            "max" : [
                2.9412646293640137,
                2.941265106201172,
                3.067901372909546
            ],
            "min" : [
                -2.94126558303833,
                -2.9412641525268555,
                -2.471449851989746
            ],
            "type" : "VEC3"
        },
        {
            "bufferView" : 5,
            "componentType" : 5126,
            "count" : 2856,
            "max" : [
                0.999969482421875,
                0.999969482421875,
                0.9998779296875
            ],
            "min" : [
                -0.9876705408096313,
                -0.999969482421875,
                -0.999969482421875
            ],
            "type" : "VEC3"
        },
        {
            "bufferView" : 6,
            "componentType" : 5123,
            "count" : 3972,
            "max" : [
                721
            ],
            "min" : [
                0
            ],
            "type" : "SCALAR"
        },
        {
            "bufferView" : 7,
            "componentType" : 5126,
            "count" : 722,
            "max" : [
                2.5320053100585938,
                2.5320053100585938,
                0.00721086235716939
            ],
            "min" : [
                -2.5320053100585938,
                -2.5320053100585938,
                -2.4896109104156494
            ],
            "type" : "VEC3"
        },
        {
            "bufferView" : 8,
            "componentType" : 5126,
            "count" : 722,
            "max" : [
                0.9985656142234802,
                0.9985656142234802,
                0.8783837556838989
            ],
            "min" : [
                -0.9862971901893616,
                -0.9985656142234802,
                -0.999755859375
            ],
            "type" : "VEC3"
        },
        {
            "bufferView" : 9,
            "componentType" : 5123,
            "count" : 6,
            "max" : [
                3
            ],
            "min" : [
                0
            ],
            "type" : "SCALAR"
        },
        {
            "bufferView" : 10,
            "componentType" : 5126,
            "count" : 4,
            "max" : [
                1.0,
                0.0,
                1.0
            ],
            "min" : [
                -1.0,
                0.0,
                -1.0
            ],
            "type" : "VEC3"
        },
        {
            "bufferView" : 11,
            "componentType" : 5126,
            "count" : 4,
            "max" : [
                0.0,
                1.0,
                -0.0
            ],
            "min" : [
                0.0,
                1.0,
                -0.0
            ],
            "type" : "VEC3"
        },
        {
            "bufferView" : 12,
            "componentType" : 5123,
            "count" : 714,
            "max" : [
                361
            ],
            "min" : [
                0
            ],
            "type" : "SCALAR"
        },
        {
            "bufferView" : 13,
            "componentType" : 5126,
            "count" : 362,
            "max" : [
                0.757355272769928,
                -2.4803714752197266,
                1.2363131046295166
            ],
            "min" : [
                -1.4206914901733398,
                -2.9835665225982666,
                -1.4514199495315552
            ],
            "type" : "VEC3"
        },
        {
            "bufferView" : 14,
            "componentType" : 5126,
            "count" : 362,
            "max" : [
                0.9995823502540588,
                1.0,
                0.9999999403953552
            ],
            "min" : [
                -0.9994993805885315,
                -0.9999999403953552,
                -0.9995830655097961
            ],
            "type" : "VEC3"
        }
    ],
    "asset" : {
        "generator" : "Khronos Blender glTF 2.0 exporter",
        "version" : "2.0"
    },
    "bufferViews" : [
        {
            "buffer" : 0,
            "byteLength" : 1368,
            "byteOffset" : 0,
            "target" : 34963
        },
        {
            "buffer" : 0,
            "byteLength" : 4224,
            "byteOffset" : 1368,
            "target" : 34962
        },
        {
            "buffer" : 0,
            "byteLength" : 4224,
            "byteOffset" : 5592,
            "target" : 34962
        },
        {
            "buffer" : 0,
            "byteLength" : 32376,
            "byteOffset" : 9816,
            "target" : 34963
        },
        {
            "buffer" : 0,
            "byteLength" : 34272,
            "byteOffset" : 42192,
            "target" : 34962
        },
        {
            "buffer" : 0,
            "byteLength" : 34272,
            "byteOffset" : 76464,
            "target" : 34962
        },
        {
            "buffer" : 0,
            "byteLength" : 7944,
            "byteOffset" : 110736,
            "target" : 34963
        },
        {
            "buffer" : 0,
            "byteLength" : 8664,
            "byteOffset" : 118680,
            "target" : 34962
        },
        {
            "buffer" : 0,
            "byteLength" : 8664,
            "byteOffset" : 127344,
            "target" : 34962
        },
        {
            "buffer" : 0,
            "byteLength" : 12,
            "byteOffset" : 136008,
            "target" : 34963
        },
        {
            "buffer" : 0,
            "byteLength" : 48,
            "byteOffset" : 136020,
            "target" : 34962
        },
        {
            "buffer" : 0,
            "byteLength" : 48,
            "byteOffset" : 136068,
            "target" : 34962
        },
        {
            "buffer" : 0,
            "byteLength" : 1428,
            "byteOffset" : 136116,
            "target" : 34963
        },
        {
            "buffer" : 0,
            "byteLength" : 4344,
            "byteOffset" : 137544,
            "target" : 34962
        },
        {
            "buffer" : 0,
            "byteLength" : 4344,
            "byteOffset" : 141888,
            "target" : 34962
        }
    ],
    "buffers" : [
        {
            "byteLength" : 146232,
            "uri" : "Tetera.bin"
        }
    ],
    "materials" : [
        {
            "name" : "Material",
            "pbrMetallicRoughness" : {
                "baseColorFactor" : [
                    0.640000066757203,
                    0.3158528613426217,
                    0.19550706439475807,
                    1.0
                ],
                "metallicFactor" : 0.0
            }
        },
        {
            "name" : "Material.001",
            "pbrMetallicRoughness" : {
                "baseColorFactor" : [
                    0.640000066757203,
                    0.32038569927790306,
                    0.1659209276127953,
                    1.0
                ],
                "metallicFactor" : 0.0
            }
        },
        {
            "alphaMode" : "BLEND",
            "name" : "Material.002",
            "pbrMetallicRoughness" : {
                "baseColorFactor" : [
                    0.6400000190734865,
                    0.6400000190734865,
                    0.6400000190734865,
                    1.0
                ],
                "metallicFactor" : 0.0
            }
        },
        {
            "name" : "Tasa_M",
            "pbrMetallicRoughness" : {
                "baseColorFactor" : [
                    0.640000066757203,
                    0.3620187574925833,
                    0.21931574671440934,
                    1.0
                ],
                "metallicFactor" : 0.0
            }
        },
        {
            "name" : "Tetera_1",
            "pbrMetallicRoughness" : {
                "baseColorFactor" : [
                    0.640000066757203,
                    0.31610095971973173,
                    0.14159206362950894,
                    1.0
                ],
                "metallicFactor" : 0.0
            }
        }
    ],
    "meshes" : [
        {
            "name" : "CUBezierCurve.002",
            "primitives" : [
                {
                    "attributes" : {
                        "NORMAL" : 2,
                        "POSITION" : 1
                    },
                    "indices" : 0,
                    "material" : 0
                }
            ]
        },
        {
            "name" : "CUBezierCurve",
            "primitives" : [
                {
                    "attributes" : {
                        "NORMAL" : 5,
                        "POSITION" : 4
                    },
                    "indices" : 3,
                    "material" : 4
                },
                {
                    "attributes" : {
                        "NORMAL" : 8,
                        "POSITION" : 7
                    },
                    "indices" : 6,
                    "material" : 1
                }
            ]
        },
        {
            "name" : "Plane.001",
            "primitives" : [
                {
                    "attributes" : {
                        "NORMAL" : 11,
                        "POSITION" : 10
                    },
                    "indices" : 9,
                    "material" : 2
                }
            ]
        },
        {
            "name" : "CUBezierCurve.003",
            "primitives" : [
                {
                    "attributes" : {
                        "NORMAL" : 14,
                        "POSITION" : 13
                    },
                    "indices" : 12,
                    "material" : 3
                }
            ]
        }
    ],
    "nodes" : [
        {
            "mesh" : 1,
            "name" : "BezierCurve",
            "rotation" : [
                0.21084469556808472,
                -0.6749404072761536,
                0.6749404072761536,
                0.21084468066692352
            ],
            "scale" : [
                0.6368326544761658,
                0.6368326544761658,
                0.6368327140808105
            ],
            "translation" : [
                -0.6874741315841675,
                0.297776997089386,
                -1.309752106666565
            ]
        },
        {
            "name" : "BezierCurve.001",
            "rotation" : [
                0.1281781792640686,
                -0.6953921914100647,
                0.6953922510147095,
                0.1281781643629074
            ],
            "scale" : [
                0.767101526260376,
                0.767101526260376,
                0.7671015858650208
            ],
            "translation" : [
                3.2295174598693848,
                -1.2955584526062012,
                1.8930813074111938
            ]
        },
        {
            "mesh" : 0,
            "name" : "BezierCurve.002",
            "rotation" : [
                0.21084469556808472,
                -0.6749404072761536,
                0.6749404072761536,
                0.21084468066692352
            ],
            "scale" : [
                0.6368326544761658,
                0.6368326544761658,
                0.6368327140808105
            ],
            "translation" : [
                1.0059975385665894,
                0.30906611680984497,
                -2.3310627937316895
            ]
        },
        {
            "mesh" : 3,
            "name" : "BezierCurve.003",
            "rotation" : [
                0.21084469556808472,
                -0.6749404072761536,
                0.6749404072761536,
                0.21084468066692352
            ],
            "scale" : [
                0.6368326544761658,
                0.6368326544761658,
                0.6368327140808105
            ],
            "translation" : [
                -3.398029327392578,
                -0.0019512474536895752,
                -1.2734348773956299
            ]
        },
        {
            "name" : "Camera",
            "rotation" : [
                0.483536034822464,
                0.33687159419059753,
                -0.20870360732078552,
                0.7804827094078064
            ],
            "translation" : [
                7.481131553649902,
                5.34366512298584,
                6.5076398849487305
            ]
        },
        {
            "name" : "Lamp",
            "rotation" : [
                0.16907575726509094,
                0.7558802962303162,
                -0.27217137813568115,
                0.570947527885437
            ],
            "scale" : [
                1.0,
                1.0,
                0.9999999403953552
            ],
            "translation" : [
                4.076245307922363,
                2.8727383613586426,
                6.613986015319824
            ]
        },
        {
            "name" : "Lamp.001",
            "rotation" : [
                0.16907575726509094,
                0.7558802962303162,
                -0.27217137813568115,
                0.570947527885437
            ],
            "scale" : [
                1.0,
                1.0,
                0.9999999403953552
            ],
            "translation" : [
                -4.954009056091309,
                1.404244065284729,
                8.808191299438477
            ]
        },
        {
            "name" : "Lamp.002",
            "rotation" : [
                0.16907575726509094,
                0.7558802962303162,
                -0.27217137813568115,
                0.570947527885437
            ],
            "scale" : [
                1.0,
                1.0,
                0.9999999403953552
            ],
            "translation" : [
                3.071530818939209,
                5.903861999511719,
                -2.4611358642578125
            ]
        },
        {
            "mesh" : 2,
            "name" : "Plane",
            "scale" : [
                7.021770477294922,
                7.021770477294922,
                7.021770477294922
            ],
            "translation" : [
                -2.516836643218994,
                -1.712686538696289,
                -2.7308473587036133
            ]
        }
    ],
    "scene" : 0,
    "scenes" : [
        {
            "name" : "Scene",
            "nodes" : [
                3,
                2,
                1,
                0,
                5,
                4,
                6,
                8,
                7
            ]
        }
    ]
}
